<?xml version="1.0" encoding="UTF-8"?>
<svg version="1.1" xmlns="http://www.w3.org/2000/svg" width="512" height="512">
<path d="M0 0 C28.71 0 57.42 0 87 0 C87 41.52115662 76.67822735 81.43250888 57 118 C56.50862549 118.93851807 56.50862549 118.93851807 56.00732422 119.89599609 C47.17353429 136.74034009 36.16208821 152.33258902 23.41162109 166.43701172 C22.02808646 167.96890185 20.66338124 169.51589571 19.30078125 171.06640625 C-16.48547293 211.40525281 -65.8155229 237.30373715 -118 249 C-119.00836914 249.22880859 -120.01673828 249.45761719 -121.05566406 249.69335938 C-152.63406496 256.4832901 -189.51105977 255.91359196 -221 249 C-222.31460205 248.72712158 -222.31460205 248.72712158 -223.65576172 248.44873047 C-258.386282 241.12291479 -292.97272566 225.86743383 -321 204 C-322.01707031 203.24589844 -323.03414063 202.49179687 -324.08203125 201.71484375 C-334.86191863 193.68750792 -344.61178613 184.60654443 -354 175 C-358.75085867 178.96372525 -363.23613112 183.09794782 -367.58984375 187.4921875 C-368.17923233 188.08299103 -368.76862091 188.67379456 -369.37586975 189.28250122 C-371.23213727 191.14430404 -373.08487085 193.00957745 -374.9375 194.875 C-376.20614672 196.14867011 -377.4750249 197.42210971 -378.74414062 198.6953125 C-381.83210554 201.79422043 -384.91690929 204.89624301 -388 208 C-388.66 207.67 -389.32 207.34 -390 207 C-390 162.12 -390 117.24 -390 71 C-344.79 71 -299.58 71 -253 71 C-254.75429643 74.50859286 -255.93625287 76.18158448 -258.62353516 78.85058594 C-259.36415192 79.59105164 -260.10476868 80.33151733 -260.86782837 81.09442139 C-262.06633926 82.27744843 -262.06633926 82.27744843 -263.2890625 83.484375 C-264.10748627 84.29996887 -264.92591003 85.11556274 -265.76913452 85.95587158 C-268.38309973 88.55864562 -271.00393505 91.15437762 -273.625 93.75 C-275.39889454 95.5138634 -277.17233766 97.2781809 -278.9453125 99.04296875 C-283.29165142 103.36726136 -287.64365081 107.6857933 -292 112 C-291.0533327 113.11523816 -290.105113 114.22915868 -289.15625 115.3425293 C-288.62837891 115.9629863 -288.10050781 116.5834433 -287.55664062 117.22270203 C-272.26780142 134.67876895 -250.33621234 146.6411716 -229 155 C-227.96866943 155.40412109 -227.96866943 155.40412109 -226.91650391 155.81640625 C-186.89851181 171.11061232 -140.78558039 168.55292216 -101.63134766 151.99853516 C-96.95719405 149.89395892 -92.46238656 147.51834126 -88 145 C-87.37335449 144.65356445 -86.74670898 144.30712891 -86.10107422 143.95019531 C-67.25020664 133.4566897 -49.98980757 119.28087506 -37 102 C-36.40324463 101.21568604 -36.40324463 101.21568604 -35.79443359 100.41552734 C-12.84261073 70.08473373 -3.7600889 37.60088897 0 0 Z " fill="#428BCA" transform="translate(425,258)"/>
<path d="M0 0 C1.08786804 -0.00570007 2.17573608 -0.01140015 3.29656982 -0.01727295 C5.59256027 -0.02667181 7.8885639 -0.03323644 10.18457031 -0.03710938 C13.62069694 -0.04673168 17.05620286 -0.07777066 20.4921875 -0.109375 C38.81811277 -0.19820796 56.71845057 1.21695618 74.484375 5.953125 C75.47566406 6.21134033 76.46695312 6.46955566 77.48828125 6.7355957 C123.22949658 18.91113126 165.74439792 42.64643199 198.421875 77.203125 C201.32631627 75.89125298 203.37111601 74.49422283 205.59814453 72.22216797 C206.19200958 71.62169647 206.78587463 71.02122498 207.3977356 70.40255737 C208.02702972 69.75666656 208.65632385 69.11077576 209.3046875 68.4453125 C209.96016571 67.78226105 210.61564392 67.11920959 211.29098511 66.43606567 C213.38115287 64.32148974 215.46474768 62.20061666 217.546875 60.078125 C220.2938168 57.27819971 223.04715235 54.48480085 225.8046875 51.6953125 C226.43803009 51.04537323 227.07137268 50.39543396 227.72390747 49.72579956 C229.25234207 48.18017947 230.83254524 46.68605612 232.421875 45.203125 C233.081875 45.203125 233.741875 45.203125 234.421875 45.203125 C234.421875 90.413125 234.421875 135.623125 234.421875 182.203125 C189.211875 182.203125 144.001875 182.203125 97.421875 182.203125 C99.17617143 178.69453214 100.35812787 177.02154052 103.04541016 174.35253906 C103.78602692 173.61207336 104.52664368 172.87160767 105.28970337 172.10870361 C106.08871063 171.32001892 106.8877179 170.53133423 107.7109375 169.71875 C108.52936127 168.90315613 109.34778503 168.08756226 110.19100952 167.24725342 C112.80497473 164.64447938 115.42581005 162.04874738 118.046875 159.453125 C119.82076954 157.6892616 121.59421266 155.9249441 123.3671875 154.16015625 C127.71352642 149.83586364 132.06552581 145.5173317 136.421875 141.203125 C126.11042351 119.8682343 91.81358258 103.89257184 70.48046875 96.41015625 C61.28701063 93.34933916 51.97588783 90.85187464 42.421875 89.203125 C41.24238281 88.99816406 40.06289063 88.79320313 38.84765625 88.58203125 C-5.0630774 82.03829396 -50.16821637 93.55813469 -85.890625 119.703125 C-90.57679247 123.31222979 -95.00300116 127.14427237 -99.34375 131.16015625 C-101.22763198 132.88265673 -103.14947131 134.48428867 -105.140625 136.078125 C-109.95593756 140.18298161 -113.69690292 145.23831299 -117.578125 150.203125 C-118.28839844 151.07453125 -118.99867187 151.9459375 -119.73046875 152.84375 C-130.41126269 166.36374233 -139.00488828 181.90669863 -144.578125 198.203125 C-144.80048828 198.85087891 -145.02285156 199.49863281 -145.25195312 200.16601562 C-151.20022768 217.70579956 -153.33440347 234.50544562 -155.578125 253.203125 C-183.958125 253.203125 -212.338125 253.203125 -241.578125 253.203125 C-241.578125 229.75330932 -241.578125 229.75330932 -240.453125 221.515625 C-240.32260742 220.52780029 -240.19208984 219.53997559 -240.05761719 218.5222168 C-234.52748148 179.59361738 -219.5502052 141.17046833 -196.578125 109.203125 C-195.83949219 108.17058594 -195.10085937 107.13804688 -194.33984375 106.07421875 C-183.0573247 90.70354005 -170.31761922 75.36388635 -155.578125 63.203125 C-154.66160156 62.39875 -153.74507813 61.594375 -152.80078125 60.765625 C-139.78926543 49.38312296 -125.59902242 39.728814 -110.578125 31.203125 C-109.95599121 30.84154297 -109.33385742 30.47996094 -108.69287109 30.10742188 C-76.45263102 11.46840467 -37.29611406 0.15588376 0 0 Z " fill="#F0AD4E" transform="translate(241.578125,-0.203125)"/>
<path d="M0 0 C0.81807129 0.44327637 1.63614258 0.88655273 2.47900391 1.34326172 C9.7573363 5.31039793 16.96798653 9.40349246 24.17285156 13.50219727 C32.16270649 18.04680669 40.19788094 22.50457985 48.25 26.9375 C49.5037494 27.62808172 50.75749293 28.31867409 52.01123047 29.00927734 C54.40788746 30.32921672 56.80472361 31.6488301 59.20166016 32.96826172 C66.29299462 36.87293645 73.37639935 40.79088576 80.4375 44.75 C81.34097168 45.2557959 82.24444336 45.7615918 83.17529297 46.28271484 C86.07860957 47.91166564 88.97736655 49.54846448 91.875 51.1875 C93.23625 51.95078613 93.23625 51.95078613 94.625 52.72949219 C95.46933594 53.2093457 96.31367188 53.68919922 97.18359375 54.18359375 C97.93310303 54.60697021 98.6826123 55.03034668 99.45483398 55.46655273 C101.43240623 56.74670263 102.93274848 57.93866588 104.4375 59.75 C104.9375 62.6875 104.9375 62.6875 104.4375 65.75 C99.95256552 70.15923939 94.07003651 72.77419133 88.5625 75.6875 C80.28129843 80.11988703 72.04356811 84.61308033 63.875 89.25 C62.93229248 89.7847998 61.98958496 90.31959961 61.01831055 90.87060547 C58.15718152 92.4955647 55.29724987 94.12261506 52.4375 95.75 C40.0509238 102.79182724 27.63848564 109.77107028 15.11132812 116.56030273 C8.75028107 120.01322684 2.45953914 123.56774221 -3.78515625 127.2265625 C-7.93045091 129.50035282 -11.42230115 131.04312373 -16.1875 131.125 C-16.94289062 131.15335938 -17.69828125 131.18171875 -18.4765625 131.2109375 C-20.5625 130.75 -20.5625 130.75 -22.16906166 129.04015827 C-23.81803549 126.33001965 -23.93946279 124.79967889 -23.94345093 121.64653015 C-23.9519104 120.61620667 -23.96036987 119.58588318 -23.96908569 118.52433777 C-23.963013 117.39957535 -23.95694031 116.27481293 -23.95068359 115.1159668 C-23.95594055 113.92693756 -23.96119751 112.73790833 -23.96661377 111.5128479 C-23.97755566 108.25433053 -23.97498907 104.99617872 -23.96547651 101.73766685 C-23.95787301 98.32297236 -23.96492793 94.90830203 -23.96963501 91.49360657 C-23.97509279 85.75619128 -23.96790276 80.01889183 -23.95361328 74.28149414 C-23.93730995 67.65927716 -23.94255813 61.03733763 -23.9590925 54.41512746 C-23.9727347 48.72239145 -23.97461301 43.02973869 -23.96677649 37.33699161 C-23.96211194 33.94026417 -23.9614409 30.54366681 -23.97138596 27.14694786 C-23.97901485 23.35518104 -23.96737386 19.56394422 -23.95068359 15.7722168 C-23.95675629 14.65352707 -23.96282898 13.53483734 -23.96908569 12.38224792 C-23.92036189 6.3991973 -23.49168402 2.01547017 -20.5625 -3.25 C-14.75434539 -8.4128041 -5.61699189 -3.13206649 0 0 Z " fill="#428BCA" transform="translate(236.5625,192.25)"/>
</svg>
